<svg version="1.1" id="Layer_1" xmlns="http://www.w3.org/2000/svg" xmlns:xlink="http://www.w3.org/1999/xlink" x="0px" y="0px"
	 width="100%" viewBox="0 0 551 133" enable-background="new 0 0 551 133" xml:space="preserve">
<path fill="#FBFAFA" opacity="1.000000" stroke="none" 
	d="
M494.000000,134.000000 
	C329.720001,134.000000 165.439987,134.000000 1.079986,134.000000 
	C1.079986,89.734505 1.079986,45.468819 1.079986,1.101565 
	C184.666641,1.101565 368.333313,1.101565 551.962646,1.101565 
	C551.962646,45.411957 551.962646,89.706001 551.962646,134.000000 
	C539.595947,134.000000 527.266602,134.000000 514.409058,133.620422 
	C526.235046,102.357101 538.589417,71.473343 551.119141,40.151257 
	C545.749634,40.151257 541.215698,40.529427 536.775513,40.046074 
	C532.234314,39.551723 530.437500,41.497574 528.967773,45.483875 
	C524.853210,56.643703 520.295654,67.640167 515.610596,79.463943 
	C511.406860,69.590279 507.010773,60.763786 503.893677,51.506626 
	C500.989349,42.881351 496.781616,37.870220 486.928040,40.067577 
	C484.389252,40.633724 481.631348,40.217194 478.513580,40.204285 
	C473.824341,40.156483 469.595581,40.156483 465.081573,40.156483 
	C466.578461,27.605558 473.699982,21.797066 484.683167,20.193632 
	C484.683167,13.957256 484.683167,8.063232 484.683167,2.179452 
	C464.318756,2.376364 447.310791,18.451420 446.951996,38.338764 
	C446.540161,61.163715 446.813843,84.001129 446.819061,106.833115 
	C446.819244,107.610199 447.136353,108.387207 447.290955,109.096298 
	C453.280090,109.096298 459.025330,109.096298 465.383972,109.096298 
	C465.383972,91.886848 465.383972,75.002106 465.383972,57.839287 
	C470.989532,57.839287 475.981781,57.943043 480.964722,57.773705 
	C482.390228,57.725262 483.788849,56.885845 485.433350,56.622543 
	C491.861725,70.805984 497.959534,84.820457 504.327789,98.710953 
	C505.708221,101.722054 505.577698,104.142555 504.363647,107.115929 
	C500.733856,116.005730 497.430695,125.028900 494.000000,134.000000 
M194.526199,109.470085 
	C199.640289,109.470085 204.754379,109.470085 210.364059,109.470085 
	C210.364059,107.132980 210.363647,105.344948 210.364120,103.556915 
	C210.367004,92.725555 210.331192,81.893990 210.390793,71.062943 
	C210.417648,66.180061 212.427155,62.379902 216.965500,60.167156 
	C220.967041,58.216137 224.775772,58.815170 228.267441,61.315941 
	C231.998886,63.988434 232.988525,67.922005 232.972168,72.302498 
	C232.926346,84.590256 232.956192,96.878296 232.956192,109.105782 
	C239.410339,109.105782 245.309387,109.105782 250.994949,109.105782 
	C250.994949,94.109634 251.787064,79.429611 250.755661,64.878838 
	C249.857361,52.205780 237.698105,42.000950 225.080307,40.818333 
	C215.960037,39.963520 208.080978,42.673351 201.041183,48.458931 
	C195.020767,43.552166 188.460190,40.763584 180.815567,40.547028 
	C176.162033,40.415199 171.815369,42.192944 166.685165,39.938866 
	C162.279053,38.002941 156.348007,39.537685 150.991623,39.537685 
	C150.991623,63.131592 150.991623,86.050331 150.991623,109.134087 
	C157.117447,109.134087 162.981079,109.134087 169.199265,109.134087 
	C169.199265,107.156509 169.199173,105.517410 169.199280,103.878311 
	C169.200058,93.213577 169.217850,82.548805 169.193542,71.884125 
	C169.183487,67.476219 170.356277,63.627972 174.236725,61.095749 
	C177.843521,58.742104 181.621964,58.280674 185.574951,60.341385 
	C190.095871,62.698154 191.801285,66.672012 191.835068,71.461449 
	C191.913788,82.625542 191.801331,93.791321 191.939194,104.954277 
	C191.957718,106.455505 192.974136,107.944420 194.526199,109.470085 
M298.780975,62.751431 
	C299.795807,66.014015 301.557739,69.247612 301.685699,72.544617 
	C302.072968,82.523880 301.826843,92.527725 301.827484,102.521996 
	C301.827606,104.767265 301.827484,107.012543 301.827484,109.125076 
	C308.386108,109.125076 314.136841,109.125076 320.305420,109.125076 
	C320.305420,96.333191 320.199493,83.872360 320.345215,71.414467 
	C320.432373,63.965675 325.381866,58.863281 331.884949,59.028683 
	C338.315338,59.192234 342.791901,64.093872 342.893982,71.450119 
	C343.021118,80.609787 342.927582,89.772514 342.929016,98.933922 
	C342.929535,102.369583 342.929108,105.805244 342.929108,109.206177 
	C349.403259,109.206177 355.191895,109.206177 360.736542,109.206177 
	C360.736542,93.851967 361.860443,78.646309 360.395813,63.694210 
	C359.128571,50.757343 346.957947,41.737801 333.827118,40.734989 
	C325.056976,40.065208 317.607574,43.159580 310.923218,48.431023 
	C304.511597,43.174313 297.597260,40.528599 289.549347,40.572132 
	C285.407562,40.594536 281.628265,42.364040 276.866272,40.001148 
	C272.626740,37.897499 266.518768,39.559383 261.049927,39.559383 
	C261.049927,63.086456 261.049927,86.114746 261.049927,109.194038 
	C267.172760,109.194038 272.925812,109.194038 279.159149,109.194038 
	C279.159149,96.645561 279.180847,84.358589 279.148621,72.071754 
	C279.135468,67.063927 280.604828,62.905800 285.316406,60.426010 
	C290.056274,57.931316 294.303619,58.966141 298.780975,62.751431 
M33.374138,68.122711 
	C38.124828,70.092773 42.872536,72.070076 47.627113,74.030708 
	C51.742630,75.727837 54.251923,78.614143 53.683220,83.234047 
	C53.076691,88.161217 49.426113,90.149628 45.052040,90.901558 
	C35.679737,92.512695 27.630793,89.760490 20.934851,83.067642 
	C19.096096,81.229736 17.426384,79.222710 15.574898,77.178223 
	C11.185573,82.385651 7.030795,87.314812 2.856920,92.266624 
	C14.218719,105.867271 28.485209,111.808098 45.568390,109.748825 
	C57.559357,108.303391 67.620247,103.005775 72.020958,90.738617 
	C77.425728,75.672600 71.536003,63.050972 55.578098,55.515118 
	C48.537437,52.190285 41.126640,49.657341 34.007973,46.486313 
	C30.268324,44.820488 26.951643,42.459343 27.811161,37.435562 
	C28.689955,32.299103 32.806915,31.213373 36.921341,30.322784 
	C38.323559,30.019266 40.050167,30.060431 41.345501,30.610569 
	C48.070183,33.466591 54.703384,36.538029 61.897312,39.772186 
	C65.085312,35.621944 68.906784,30.647032 73.028229,25.281601 
	C68.572250,22.420183 64.538231,19.460583 60.178593,17.103142 
	C49.426540,11.289057 38.018673,9.952516 26.453505,14.065801 
	C16.571028,17.580616 9.723493,24.493876 8.086575,35.160606 
	C6.432719,45.937714 10.076279,54.928978 19.461275,60.944229 
	C23.631279,63.616962 28.228764,65.622742 33.374138,68.122711 
M436.344849,65.500099 
	C436.344849,56.921040 436.344849,48.341976 436.344849,39.096424 
	C429.389282,40.881340 422.509521,37.046902 416.119019,42.500385 
	C415.687622,42.347256 414.301544,41.826195 412.896942,41.361183 
	C398.923096,36.735085 383.361938,41.351952 374.251587,52.817444 
	C364.784241,64.732208 363.868103,80.848648 371.917389,93.879707 
	C379.488037,106.135910 394.655334,112.370232 409.134277,109.450745 
	C412.683868,108.735016 415.802399,107.194336 420.209900,109.021584 
	C424.707520,110.886177 430.580139,109.434120 435.590515,109.434120 
	C435.977264,108.541824 436.214142,108.249443 436.215332,107.956100 
	C436.271484,94.137482 436.307190,80.318794 436.344849,65.500099 
M133.703430,99.166748 
	C138.934158,93.098015 141.279984,86.046661 141.208359,78.051224 
	C141.106903,66.724678 141.197021,55.396507 141.165634,44.069145 
	C141.162170,42.821770 140.899124,41.575115 140.771027,40.455246 
	C134.585510,40.455246 128.823883,40.455246 122.697533,40.455246 
	C122.697533,42.726460 122.700958,44.702316 122.696960,46.678158 
	C122.675079,57.505108 122.905823,68.340683 122.539345,79.155998 
	C122.292702,86.434967 116.705772,91.458549 109.989853,91.378960 
	C103.057556,91.296806 98.098618,86.214371 97.896835,78.824402 
	C97.778671,74.496445 97.859467,70.162933 97.857948,65.831924 
	C97.854988,57.398254 97.857079,48.964584 97.857079,40.439217 
	C91.304596,40.439217 85.397408,40.439217 79.587769,40.439217 
	C79.366524,41.013378 79.152733,41.310295 79.151764,41.607906 
	C79.112656,53.600090 79.045914,65.592484 79.082664,77.584534 
	C79.125633,91.605614 86.298729,102.882507 98.134613,107.724258 
	C110.520973,112.791206 123.071732,109.917778 133.703430,99.166748 
z"/>
<path fill="#DE2667" opacity="1.000000" stroke="none" 
	d="
M478.974121,40.252083 
	C481.631348,40.217194 484.389252,40.633724 486.928040,40.067577 
	C496.781616,37.870220 500.989349,42.881351 503.893677,51.506626 
	C507.010773,60.763786 511.406860,69.590279 515.610596,79.463943 
	C520.295654,67.640167 524.853210,56.643703 528.967773,45.483875 
	C530.437500,41.497574 532.234314,39.551723 536.775513,40.046074 
	C541.215698,40.529427 545.749634,40.151257 551.119141,40.151257 
	C538.589417,71.473343 526.235046,102.357101 513.940369,133.620422 
	C507.645599,134.000000 501.291199,134.000000 494.468414,134.000000 
	C497.430695,125.028900 500.733856,116.005730 504.363647,107.115929 
	C505.577698,104.142555 505.708221,101.722054 504.327789,98.710953 
	C497.959534,84.820457 491.861725,70.805984 485.351929,56.232788 
	C483.015991,50.503761 480.995056,45.377918 478.974121,40.252083 
z"/>
<path fill="#5D2036" opacity="1.000000" stroke="none" 
	d="
M194.027344,109.454559 
	C192.974136,107.944420 191.957718,106.455505 191.939194,104.954277 
	C191.801331,93.791321 191.913788,82.625542 191.835068,71.461449 
	C191.801285,66.672012 190.095871,62.698154 185.574951,60.341385 
	C181.621964,58.280674 177.843521,58.742104 174.236725,61.095749 
	C170.356277,63.627972 169.183487,67.476219 169.193542,71.884125 
	C169.217850,82.548805 169.200058,93.213577 169.199280,103.878311 
	C169.199173,105.517410 169.199265,107.156509 169.199265,109.134087 
	C162.981079,109.134087 157.117447,109.134087 150.991623,109.134087 
	C150.991623,86.050331 150.991623,63.131592 150.991623,39.537685 
	C156.348007,39.537685 162.279053,38.002941 166.685165,39.938866 
	C171.815369,42.192944 176.162033,40.415199 180.815567,40.547028 
	C188.460190,40.763584 195.020767,43.552166 201.041183,48.458931 
	C208.080978,42.673351 215.960037,39.963520 225.080307,40.818333 
	C237.698105,42.000950 249.857361,52.205780 250.755661,64.878838 
	C251.787064,79.429611 250.994949,94.109634 250.994949,109.105782 
	C245.309387,109.105782 239.410339,109.105782 232.956192,109.105782 
	C232.956192,96.878296 232.926346,84.590256 232.972168,72.302498 
	C232.988525,67.922005 231.998886,63.988434 228.267441,61.315941 
	C224.775772,58.815170 220.967041,58.216137 216.965500,60.167156 
	C212.427155,62.379902 210.417648,66.180061 210.390793,71.062943 
	C210.331192,81.893990 210.367004,92.725555 210.364120,103.556915 
	C210.363647,105.344948 210.364059,107.132980 210.364059,109.470085 
	C204.754379,109.470085 199.640289,109.470085 194.027344,109.454559 
z"/>
<path fill="#7E2142" opacity="1.000000" stroke="none" 
	d="
M298.515991,62.478531 
	C294.303619,58.966141 290.056274,57.931316 285.316406,60.426010 
	C280.604828,62.905800 279.135468,67.063927 279.148621,72.071754 
	C279.180847,84.358589 279.159149,96.645561 279.159149,109.194038 
	C272.925812,109.194038 267.172760,109.194038 261.049927,109.194038 
	C261.049927,86.114746 261.049927,63.086456 261.049927,39.559383 
	C266.518768,39.559383 272.626740,37.897499 276.866272,40.001148 
	C281.628265,42.364040 285.407562,40.594536 289.549347,40.572132 
	C297.597260,40.528599 304.511597,43.174313 310.923218,48.431023 
	C317.607574,43.159580 325.056976,40.065208 333.827118,40.734989 
	C346.957947,41.737801 359.128571,50.757343 360.395813,63.694210 
	C361.860443,78.646309 360.736542,93.851967 360.736542,109.206177 
	C355.191895,109.206177 349.403259,109.206177 342.929108,109.206177 
	C342.929108,105.805244 342.929535,102.369583 342.929016,98.933922 
	C342.927582,89.772514 343.021118,80.609787 342.893982,71.450119 
	C342.791901,64.093872 338.315338,59.192234 331.884949,59.028683 
	C325.381866,58.863281 320.432373,63.965675 320.345215,71.414467 
	C320.199493,83.872360 320.305420,96.333191 320.305420,109.125076 
	C314.136841,109.125076 308.386108,109.125076 301.827484,109.125076 
	C301.827484,107.012543 301.827606,104.767265 301.827484,102.521996 
	C301.826843,92.527725 302.072968,82.523880 301.685699,72.544617 
	C301.557739,69.247612 299.795807,66.014015 298.515991,62.478531 
z"/>
<path fill="#1E1E1E" opacity="1.000000" stroke="none" 
	d="
M33.003174,68.026985 
	C28.228764,65.622742 23.631279,63.616962 19.461275,60.944229 
	C10.076279,54.928978 6.432719,45.937714 8.086575,35.160606 
	C9.723493,24.493876 16.571028,17.580616 26.453505,14.065801 
	C38.018673,9.952516 49.426540,11.289057 60.178593,17.103142 
	C64.538231,19.460583 68.572250,22.420183 73.028229,25.281601 
	C68.906784,30.647032 65.085312,35.621944 61.897312,39.772186 
	C54.703384,36.538029 48.070183,33.466591 41.345501,30.610569 
	C40.050167,30.060431 38.323559,30.019266 36.921341,30.322784 
	C32.806915,31.213373 28.689955,32.299103 27.811161,37.435562 
	C26.951643,42.459343 30.268324,44.820488 34.007973,46.486313 
	C41.126640,49.657341 48.537437,52.190285 55.578098,55.515118 
	C71.536003,63.050972 77.425728,75.672600 72.020958,90.738617 
	C67.620247,103.005775 57.559357,108.303391 45.568390,109.748825 
	C28.485209,111.808098 14.218719,105.867271 2.856920,92.266624 
	C7.030795,87.314812 11.185573,82.385651 15.574898,77.178223 
	C17.426384,79.222710 19.096096,81.229736 20.934851,83.067642 
	C27.630793,89.760490 35.679737,92.512695 45.052040,90.901558 
	C49.426113,90.149628 53.076691,88.161217 53.683220,83.234047 
	C54.251923,78.614143 51.742630,75.727837 47.627113,74.030708 
	C42.872536,72.070076 38.124828,70.092773 33.003174,68.026985 
z"/>
<path fill="#9E224E" opacity="1.000000" stroke="none" 
	d="
M436.345032,66.000107 
	C436.307190,80.318794 436.271484,94.137482 436.215332,107.956100 
	C436.214142,108.249443 435.977264,108.541824 435.590515,109.434120 
	C430.580139,109.434120 424.707520,110.886177 420.209900,109.021584 
	C415.802399,107.194336 412.683868,108.735016 409.134277,109.450745 
	C394.655334,112.370232 379.488037,106.135910 371.917389,93.879707 
	C363.868103,80.848648 364.784241,64.732208 374.251587,52.817444 
	C383.361938,41.351952 398.923096,36.735085 412.896942,41.361183 
	C414.301544,41.826195 415.687622,42.347256 416.119019,42.500385 
	C422.509521,37.046902 429.389282,40.881340 436.344849,39.096424 
	C436.344849,48.341976 436.344849,56.921040 436.345032,66.000107 
M416.994141,67.803802 
	C416.395508,66.809982 415.879608,65.753723 415.184723,64.832489 
	C410.659271,58.832970 402.736603,56.443695 396.068085,59.020763 
	C388.906250,61.788486 384.292511,69.342972 385.187561,76.836288 
	C386.099335,84.469528 391.733551,90.499710 399.284729,91.577087 
	C411.916046,93.379295 422.119904,81.061165 416.994141,67.803802 
z"/>
<path fill="#3E1F2A" opacity="1.000000" stroke="none" 
	d="
M133.460403,99.429497 
	C123.071732,109.917778 110.520973,112.791206 98.134613,107.724258 
	C86.298729,102.882507 79.125633,91.605614 79.082664,77.584534 
	C79.045914,65.592484 79.112656,53.600090 79.151764,41.607906 
	C79.152733,41.310295 79.366524,41.013378 79.587769,40.439217 
	C85.397408,40.439217 91.304596,40.439217 97.857079,40.439217 
	C97.857079,48.964584 97.854988,57.398254 97.857948,65.831924 
	C97.859467,70.162933 97.778671,74.496445 97.896835,78.824402 
	C98.098618,86.214371 103.057556,91.296806 109.989853,91.378960 
	C116.705772,91.458549 122.292702,86.434967 122.539345,79.155998 
	C122.905823,68.340683 122.675079,57.505108 122.696960,46.678158 
	C122.700958,44.702316 122.697533,42.726460 122.697533,40.455246 
	C128.823883,40.455246 134.585510,40.455246 140.771027,40.455246 
	C140.899124,41.575115 141.162170,42.821770 141.165634,44.069145 
	C141.197021,55.396507 141.106903,66.724678 141.208359,78.051224 
	C141.279984,86.046661 138.934158,93.098015 133.460403,99.429497 
z"/>
<path fill="#BE235A" opacity="1.000000" stroke="none" 
	d="
M478.513611,40.204277 
	C480.995056,45.377918 483.015991,50.503761 485.118378,56.019363 
	C483.788849,56.885845 482.390228,57.725262 480.964722,57.773705 
	C475.981781,57.943043 470.989532,57.839287 465.383972,57.839287 
	C465.383972,75.002106 465.383972,91.886848 465.383972,109.096298 
	C459.025330,109.096298 453.280090,109.096298 447.290955,109.096298 
	C447.136353,108.387207 446.819244,107.610199 446.819061,106.833115 
	C446.813843,84.001129 446.540161,61.163715 446.951996,38.338764 
	C447.310791,18.451420 464.318756,2.376364 484.683167,2.179452 
	C484.683167,8.063232 484.683167,13.957256 484.683167,20.193632 
	C473.699982,21.797066 466.578461,27.605558 465.081573,40.156483 
	C469.595581,40.156483 473.824341,40.156483 478.513611,40.204277 
z"/>
<path fill="#FBF9F9" opacity="1.000000" stroke="none" 
	d="
M417.128845,68.161957 
	C422.119904,81.061165 411.916046,93.379295 399.284729,91.577087 
	C391.733551,90.499710 386.099335,84.469528 385.187561,76.836288 
	C384.292511,69.342972 388.906250,61.788486 396.068085,59.020763 
	C402.736603,56.443695 410.659271,58.832970 415.184723,64.832489 
	C415.879608,65.753723 416.395508,66.809982 417.128845,68.161957 
z"/>
</svg>